<?xml version="1.0" encoding="UTF-8"?>
<svg id="a" xmlns="http://www.w3.org/2000/svg" width="187.2" height="66" viewBox="0 0 187.2 66"><path d="M160.83,29.11l-7.73,13.58h20.71v21.01l13.39-7.85V29.11h-26.37Z" fill="#badb2c"/><path d="M24.53,1.08H0V13.75H24.53c11.32,0,18.96,7.93,18.96,19.24v.18c0,11.31-7.64,19.05-18.96,19.05H13.84V19.82H0v45.07H24.53c19.77,0,33.44-13.95,33.44-31.9v-.18c-.01-17.96-13.67-31.72-33.44-31.72Z" fill="#ffffff"/><path d="M88.16,1.08h-24.53V13.75h24.53c11.32,0,18.96,7.93,18.96,19.24v.18c0,11.31-7.64,19.05-18.96,19.05h-10.69V19.82h-13.84v45.07h24.53c19.77,0,33.44-13.95,33.44-31.9v-.18c-.01-17.96-13.67-31.72-33.44-31.72Z" fill="#ffffff"/><path d="M141.73,32.99v-.18c0-10.85,7.99-19.87,18.05-19.87,7.28,0,11.59,2.37,16.44,6.47l8.72-10.66c-6.55-5.65-13.38-8.74-24.7-8.74-19.05,0-32.98,14.86-32.98,33v.18c0,18.87,13.48,32.82,33.07,32.82,2.52,0,5.04-.23,7.51-.69v-13.04c-2.3,.65-4.68,.97-7.07,.95-11.14,0-19.05-8.57-19.05-20.24Z" fill="#ffffff"/></svg>